# 《荒野大镖客》之Ass特效字幕制作

**Aegisub**之Ass特效字幕制作
<!--more-->

## 微信公众号

<span style="color:red;">本文详情请关注微信公众号：</span>

{{< image src="https://cdn.jsdelivr.net/gh/Albresky/Albresky.github.io@master/content/posts/BGK-Decode/wechat.png" caption="公众号：代码之火" title="公众号：代码之火">}}

## 获取字幕

 - 下载链接：

   - {{< link "https://subhd.tv/a/530479" "SubHD - 2022/02/16更新" "点击跳转到SubHD" >}}

   - {{< link "https://zimuku.pw/detail/166382.html" "字幕库 - 2022/02/16更新" "点击跳转到字幕库" >}}

## 获取影片

### 影片信息

```Markdown
General
Unique ID                      : 234771498082653244481940208931999102133 (0xB09F5887F61112B464B26644FED8B4B5)
Complete name                  : D:\迅雷下载\A.Fistful.of.Dollars.1964.REMASTERED.1080p.BluRay.REMUX.AVC.DTS-HD.MA.5.1-FGT\A.Fistful.of.Dollars.1964.REMASTERED1080p.  BluRay.REMUX.AVC.DTS-HD.MA.5.1-FGT.mkv
Format                         : Matroska
Format version                 : Version 4
File size                      : 25.0 GiB
Duration                       : 1 h 40 min
Overall bit rate mode          : Variable
Overall bit rate               : 35.5 Mb/s
Movie name                     : A.Fistful.of.Dollars.1964.REMASTERED.1080p.BluRay.REMUX.AVC.DTS-HD.MA.5.1-FGT
Encoded date                   : UTC 2018-11-18 09:41:27
Writing application            : mkvmerge v28.2.0 ('The Awakening') 64-bit
Writing library                : libebml v1.3.6 + libmatroska v1.4.9
Cover                          : Yes
Attachments                    : cover_land.jpg / small_cover.jpg / small_cover_land.jpg / cover.jpg
Video
ID                             : 1
Format                         : AVC
Format/Info                    : Advanced Video Codec
Format profile                 : High@L4.1
Format settings                : CABAC / 4 Ref Frames
Format settings, CABAC         : Yes
Format settings, Reference fra : 4 frames
Codec ID                       : V_MPEG4/ISO/AVC
Duration                       : 1 h 40 min
Bit rate mode                  : Variable
Bit rate                       : 28.8 Mb/s
Maximum bit rate               : 35.0 Mb/s
Width                          : 1 920 pixels
Height                         : 1 080 pixels
Display aspect ratio           : 16:9
Frame rate mode                : Constant
Frame rate                     : 23.976 (24000/1001) FPS
Color space                    : YUV
Chroma subsampling             : 4:2:0
Bit depth                      : 8 bits
Scan type                      : Progressive
Bits/(Pixel*Frame)             : 0.580
Stream size                    : 20.3 GiB (81%)
Title                          : A.Fistful.of.Dollars.1964.REMASTERED.1080p.BluRay.REMUX.AVC.DTS-HD.MA.5.1-FGT
Language                       : English
Default                        : No
Forced                         : No
Audio #1
ID                             : 2
Format                         : DTS XLL
Format/Info                    : Digital Theater Systems
Commercial name                : DTS-HD Master Audio
Codec ID                       : A_DTS
Duration                       : 1 h 40 min
Bit rate mode                  : Variable
Bit rate                       : 1 722 kb/s
Channel(s)                     : 6 channels
Channel layout                 : C L R Ls Rs LFE
Sampling rate                  : 48.0 kHz
Frame rate                     : 93.750 FPS (512 SPF)
Bit depth                      : 16 bits
Compression mode               : Lossless
Stream size                    : 1.21 GiB (5%)
Title                          : A.Fistful.of.Dollars.1964.REMASTERED.1080p.BluRay.REMUX.AVC.DTS-HD.MA.5.1-FGT
Language                       : English
Default                        : Yes
Forced                         : No
Audio #2
ID                             : 3
Format                         : DTS
Format/Info                    : Digital Theater Systems
Codec ID                       : A_DTS
Duration                       : 1 h 40 min
Bit rate mode                  : Constant
Bit rate                       : 1 509 kb/s
Channel(s)                     : 6 channels
Channel layout                 : C L R Ls Rs LFE
Sampling rate                  : 48.0 kHz
Frame rate                     : 93.750 FPS (512 SPF)
Bit depth                      : 16 bits
Compression mode               : Lossy
Stream size                    : 1.06 GiB (4%)
Title                          : A.Fistful.of.Dollars.1964.REMASTERED.1080p.BluRay.REMUX.AVC.DTS-HD.MA.5.1-FGT
Language                       : English
Default                        : No
Forced                         : No
Audio #3
ID                             : 4
Format                         : DTS XLL
Format/Info                    : Digital Theater Systems
Commercial name                : DTS-HD Master Audio
Codec ID                       : A_DTS
Duration                       : 1 h 40 min
Bit rate mode                  : Variable
Bit rate                       : 1 567 kb/s
Channel(s)                     : 2 channels
Channel layout                 : L R
Sampling rate                  : 48.0 kHz
Frame rate                     : 93.750 FPS (512 SPF)
Bit depth                      : 16 bits
Compression mode               : Lossless
Stream size                    : 1.10 GiB (4%)
Title                          : A.Fistful.of.Dollars.1964.REMASTERED.1080p.BluRay.REMUX.AVC.DTS-HD.MA.5.1-FGT
Language                       : English
Default                        : No
Forced                         : No
Audio #4
ID                             : 5
Format                         : DTS
Format/Info                    : Digital Theater Systems
Codec ID                       : A_DTS
Duration                       : 1 h 40 min
Bit rate mode                  : Constant
Bit rate                       : 1 509 kb/s
Channel(s)                     : 2 channels
Channel layout                 : L R
Sampling rate                  : 48.0 kHz
Frame rate                     : 93.750 FPS (512 SPF)
Bit depth                      : 16 bits
Compression mode               : Lossy
Stream size                    : 1.06 GiB (4%)
Title                          : A.Fistful.of.Dollars.1964.REMASTERED.1080p.BluRay.REMUX.AVC.DTS-HD.MA.5.1-FGT
Language                       : English
Default                        : No
Forced                         : No
Audio #5
ID                             : 6
Format                         : AC-3
Format/Info                    : Audio Coding 3
Commercial name                : Dolby Digital
Codec ID                       : A_AC3
Duration                       : 1 h 40 min
Bit rate mode                  : Constant
Bit rate                       : 192 kb/s
Channel(s)                     : 2 channels
Channel layout                 : L R
Sampling rate                  : 48.0 kHz
Frame rate                     : 31.250 FPS (1536 SPF)
Compression mode               : Lossy
Stream size                    : 138 MiB (1%)
Title                          : A.Fistful.of.Dollars.1964.REMASTERED.1080p.BluRay.REMUX.AVC.DTS-HD.MA.5.1-FGT
Language                       : English
Service kind                   : Complete Main
Default                        : No
Forced                         : No
Audio #6
ID                             : 7
Format                         : AC-3
Format/Info                    : Audio Coding 3
Commercial name                : Dolby Digital
Codec ID                       : A_AC3
Duration                       : 1 h 40 min
Bit rate mode                  : Constant
Bit rate                       : 192 kb/s
Channel(s)                     : 2 channels
Channel layout                 : L R
Sampling rate                  : 48.0 kHz
Frame rate                     : 31.250 FPS (1536 SPF)
Compression mode               : Lossy
Stream size                    : 138 MiB (1%)
Title                          : A.Fistful.of.Dollars.1964.REMASTERED.1080p.BluRay.REMUX.AVC.DTS-HD.MA.5.1-FGT
Language                       : English
Service kind                   : Complete Main
Default                        : No
Forced                         : No
Text
ID                             : 8
Format                         : PGS
Muxing mode                    : zlib
Codec ID                       : S_HDMV/PGS
Codec ID/Info                  : Picture based subtitle format used on BDs/HD-DVDs
Duration                       : 1 h 35 min
Bit rate                       : 18.1 kb/s
Count of elements              : 1396
Stream size                    : 12.3 MiB (0%)
Title                          : English-PGS
Language                       : English
Default                        : Yes
Forced                         : No
Menu
00:00:00.000                   : en:Chapter 00
00:12:51.228                   : en:Chapter 01
00:21:14.564                   : en:Chapter 02
00:33:07.360                   : en:Chapter 03
00:50:38.660                   : en:Chapter 04
01:00:12.025                   : en:Chapter 05
01:11:54.685                   : en:Chapter 06
01:25:02.722                   : en:Chapter 07
```

### 资源
 - {{< link "https://www.aliyundrive.com/s/ZjtE9Pq3rbg " "阿里云盘【提取码：代码之火】" "点击跳转到阿里网盘" >}}
